HIERARCHY
ROOT Hips
{
  OFFSET -35.2597 29.1586 114.425
  CHANNELS 6 Xposition Yposition Zposition Zrotation Xrotation Yrotation
  JOINT LeftUpLeg
  {
    OFFSET 8.64259 1.95398 -2.38835
    CHANNELS 3 Zrotation Xrotation Yrotation
    JOINT LeftLeg
    {
      OFFSET 43.7702 0 0
      CHANNELS 3 Zrotation Xrotation Yrotation
      JOINT LeftFoot
      {
        OFFSET 40.6238 0 0
        CHANNELS 3 Zrotation Xrotation Yrotation
        JOINT LeftToeBase
        {
          OFFSET 12.7242 0 0
          CHANNELS 3 Zrotation Xrotation Yrotation
          End Site
          {
            OFFSET 0 0 0
          }
        }
      }
    }
  }
  JOINT RightUpLeg
  {
    OFFSET -8.2249 1.95398 -2.59336
    CHANNELS 3 Zrotation Xrotation Yrotation
    JOINT RightLeg
    {
      OFFSET 43.5653 0 0
      CHANNELS 3 Zrotation Xrotation Yrotation
      JOINT RightFoot
      {
        OFFSET 40.6238 0 0
        CHANNELS 3 Zrotation Xrotation Yrotation
        JOINT RightToeBase
        {
          OFFSET 12.7242 0 0
          CHANNELS 3 Zrotation Xrotation Yrotation
          End Site
          {
            OFFSET 0 0 0
          }
        }
      }
    }
  }
  JOINT Spine
  {
    OFFSET 0.165834 0.87714 6.61349
    CHANNELS 3 Zrotation Xrotation Yrotation
    JOINT Spine1
    {
      OFFSET 7.38963 1.71661e-005 0
      CHANNELS 3 Zrotation Xrotation Yrotation
      JOINT Spine2
      {
        OFFSET 11.9445 1.14441e-005 0
        CHANNELS 3 Zrotation Xrotation Yrotation
        JOINT Spine3
        {
          OFFSET 14.7254 4.19617e-005 0
          CHANNELS 3 Zrotation Xrotation Yrotation
          JOINT Spine4
          {
            OFFSET 10.9679 0 0
            CHANNELS 3 Zrotation Xrotation Yrotation
            JOINT RightShoulder
            {
              OFFSET 2.46616 -1.6653 3.69651
              CHANNELS 3 Zrotation Xrotation Yrotation
              JOINT RightArm
              {
                OFFSET 13.0012 0 0
                CHANNELS 3 Zrotation Xrotation Yrotation
                JOINT RightForeArm
                {
                  OFFSET 28.7848 1.62311e-005 0
                  CHANNELS 3 Zrotation Xrotation Yrotation
                  JOINT RightHand
                  {
                    OFFSET 26.5688 1.62095e-005 0
                    CHANNELS 3 Zrotation Xrotation Yrotation
                    End Site
                    {
                      OFFSET 0 0 0
                    }
                  }
                }
              }
            }
            JOINT LeftShoulder
            {
              OFFSET 2.38034 -1.29275 -3.7523
              CHANNELS 3 Zrotation Xrotation Yrotation
              JOINT LeftArm
              {
                OFFSET 16.3182 6.07031e-005 0
                CHANNELS 3 Zrotation Xrotation Yrotation
                JOINT LeftForeArm
                {
                  OFFSET 27.0901 0 0
                  CHANNELS 3 Zrotation Xrotation Yrotation
                  JOINT LeftHand
                  {
                    OFFSET 24.5451 1.51738e-005 0
                    CHANNELS 3 Zrotation Xrotation Yrotation
                    End Site
                    {
                      OFFSET 0 0 0
                    }
                  }
                }
              }
            }
            JOINT Neck
            {
              OFFSET 5.0226 -0.0266342 0
              CHANNELS 3 Zrotation Xrotation Yrotation
              JOINT Head
              {
                OFFSET 6.69364 2.86102e-005 0
                CHANNELS 3 Zrotation Xrotation Yrotation
                End Site
                {
                  OFFSET 0 0 0
                }
              }
            }
          }
        }
      }
    }
  }
}
MOTION
Frames:	6
Frame Time:	0.0416667
34.1507 9.00695 42.3695 3.78245 -10.4768 -0.805156 -175.607 -8.66978 91.6851 -19.9182 36.3782 3.80769 90.3859 24.0108 2.59736 13.5911 -11.397 4.74663 174.451 -12.9724 90.1527 -13.0121 -19.8213 -2.34088 89.496 -21.9133 -1.76079 39.7337 -4.76074 1.25934 0.0432697 6.35085 -89.9779 14.1722 0.0966035 0.0310098 2.50124 0.0978758 0.02673 -20.034 0.0828144 0.0586106 -0.021282 0.0828172 0.0586091 95.7564 -18.4784 -98.1476 18.6435 37.9024 45.9277 -53.7908 11.8292 -102.485 67.4462 -68.2171 -95.242 -84.7942 -40.5894 85.2305 -19.6728 -13.7725 20.7896 163.811 -14.8271 -55.5713 -11.9692 14.6115 -118.256 26.7511 -1.81494 -4.4525 7.37819 0.142155 3.06628 
34.0864 9.08444 42.3984 3.71511 -10.5263 -0.884995 -175.67 -8.39696 91.6177 -20.2289 35.7662 3.82559 89.9953 23.2058 1.67726 16.8178 -10.2595 6.07522 174.477 -13.0622 90.1724 -12.8385 -20.2583 -2.39522 89.0427 -21.9774 -2.50401 40.2806 -5.04213 1.65427 0.088714 6.30536 -90.0003 14.2632 0.175665 -0.0249497 2.59225 0.1744 -0.0326569 -19.943 0.175039 0.0290023 0.069649 0.175038 0.0290073 95.9041 -17.718 -98.0188 19.3549 36.3217 44.4612 -62.4432 12.8228 -100.365 64.3442 -71.2954 -101.901 -85.2721 -41.6909 84.6046 -19.7233 -13.8177 20.0101 165.472 -13.189 -56.1473 -11.2288 13.6643 -118.882 24.7933 -1.87657 -3.1488 9.28948 -0.508423 1.83182 
34.0978 9.0638 42.3835 3.79415 -10.4963 -0.914926 -175.691 -8.41441 91.5918 -20.1427 35.7834 3.8124 90.2399 23.3117 1.48813 17.4087 -10.7999 7.43257 174.437 -13.0724 90.1585 -12.8567 -20.2497 -2.38344 88.9526 -22.051 -2.83037 41.3926 -5.64563 2.75347 0.0752152 6.29544 -89.999 14.283 0.149521 -0.0187353 2.61203 0.148558 -0.0253045 -19.9232 0.148235 0.0270761 0.0894641 0.148243 0.0270661 95.2794 -18.2058 -99.4151 18.5477 37.9295 45.573 -62.0491 12.7295 -100.43 67.61 -72.0133 -99.101 -85.3744 -41.8825 84.4639 -19.6373 -13.4958 19.1826 166.788 -11.8781 -56.7918 -10.3923 12.8203 -120.836 24.6009 -1.73145 -2.94835 9.27458 -0.481311 1.48335 
34.1311 9.0471 42.3921 3.89061 -10.4625 -0.886607 -175.78 -8.3841 91.5551 -20.2001 35.8887 3.907 90.3134 23.3855 1.51389 18.7397 -11.1278 9.22878 174.424 -13.1499 90.1919 -12.75 -19.9847 -2.36678 88.8518 -22.0362 -2.92386 43.0302 -6.49468 4.4463 0.055005 6.32865 -89.9986 14.2165 0.109718 -0.0123204 2.54558 0.10907 -0.0171323 -19.9896 0.108351 0.0212285 0.0230393 0.108347 0.021231 95.473 -18.1032 -98.9691 19.0065 36.9544 44.6868 -63.9548 12.8038 -99.8994 55.6696 -70.307 -110.644 -85.1491 -41.2396 84.7367 -19.5883 -13.3999 19.375 166.276 -12.3545 -56.597 -10.4652 12.8796 -120.919 25.2011 -1.75579 -3.31273 9.29686 -0.308667 2.003 
34.1117 9.05957 42.3944 3.83965 -10.4118 -0.922104 -175.802 -8.37341 91.514 -20.1149 35.5631 3.89558 90.4167 23.345 1.2753 20.6134 -11.1741 11.2283 174.473 -13.1439 90.253 -12.7747 -19.9456 -2.41391 88.609 -22.0988 -3.4318 45.259 -7.53308 6.59575 0.069073 6.26248 -90.0086 14.349 0.132652 -0.0357936 2.67804 0.130951 -0.0416034 -19.8572 0.137268 0.00574223 0.155494 0.13728 0.00572218 95.0285 -17.9528 -100.126 18.1964 38.1489 47.6548 -57.3945 12.5657 -101.808 84.3476 -72.2595 -82.1995 -85.6677 -42.0715 84.0107 -19.755 -14.1676 23.7861 166.265 -13.7824 -53.4102 -14.8232 17.5074 -114.01 23.7919 -1.68128 -2.90166 9.92485 -0.441149 1.68119 
34.0873 9.05195 42.392 3.71849 -10.4108 -0.984094 -175.722 -8.33589 91.5207 -20.1695 36.0238 3.81635 90.0548 23.3541 1.87545 23.3935 -10.6939 13.5131 174.503 -13.2679 90.3141 -12.686 -20.3499 -2.48965 88.0415 -22.2398 -4.61417 48.0315 -8.66196 9.02633 0.0748669 6.2763 -90.0058 14.3212 0.145485 -0.0320231 2.65025 0.143939 -0.0383945 -19.8849 0.148387 0.0131828 0.127674 0.148381 0.013175 95.1999 -18.945 -99.3626 18.2594 39.3453 44.5765 -66.6423 13.1542 -99.296 54.5483 -71.1551 -112.814 -85.5506 -42.0346 84.1974 -19.9023 -14.5974 24.1556 165.753 -14.5398 -52.7919 -13.1218 15.3977 -114.089 24.2484 -1.48493 -2.15717 9.65444 -0.568301 1.01232 
